<?xml version="1.0" standalone="no"?>
<!DOCTYPE svg PUBLIC "-//W3C//DTD SVG 20010904//EN"
 "http://www.w3.org/TR/2001/REC-SVG-20010904/DTD/svg10.dtd">
<svg version="1.0" xmlns="http://www.w3.org/2000/svg"
 width="833.000000pt" height="833.000000pt" viewBox="0 0 833.000000 833.000000"
 preserveAspectRatio="xMidYMid meet">
<metadata>
Created by potrace 1.14, written by Peter Selinger 2001-2017
</metadata>
<g transform="translate(0.000000,833.000000) scale(0.100000,-0.100000)"
fill="#000000" stroke="none">
<path d="M3928 8295 c-2 -2 -41 -6 -88 -9 -46 -4 -98 -9 -115 -11 -16 -2 -52
-7 -80 -10 -77 -9 -118 -15 -141 -20 -12 -3 -39 -7 -60 -11 -21 -3 -88 -17
-149 -31 -60 -14 -117 -26 -125 -28 -89 -18 -406 -123 -547 -181 -143 -58
-419 -197 -555 -278 -112 -67 -354 -229 -368 -246 -3 -3 -34 -28 -70 -55 -36
-27 -67 -52 -70 -55 -3 -3 -34 -30 -70 -60 -94 -78 -373 -360 -461 -465 -343
-409 -605 -877 -771 -1380 -22 -66 -42 -129 -44 -140 -3 -11 -7 -24 -8 -30 -2
-5 -7 -25 -11 -42 -8 -36 -5 -35 -127 -35 l-68 0 0 -1064 0 -1064 99 0 99 0 7
-33 c23 -102 180 -532 207 -564 6 -7 8 -13 5 -13 -3 0 22 -57 57 -128 212
-426 479 -794 821 -1130 141 -137 153 -149 255 -232 30 -25 57 -47 60 -50 50
-51 491 -350 516 -350 3 0 18 -8 32 -19 32 -21 191 -103 312 -159 230 -107
531 -209 791 -268 136 -31 136 -31 185 -38 22 -3 50 -8 64 -11 59 -11 90 -16
175 -25 173 -21 262 -25 505 -25 288 0 434 10 620 40 14 3 43 7 65 11 22 3 83
15 135 26 52 11 113 24 135 28 225 47 582 175 850 305 1049 511 1824 1425
2160 2548 l26 87 75 0 74 0 0 1064 0 1064 -57 0 c-32 0 -63 1 -70 1 -7 1 -17
20 -23 44 -34 129 -119 372 -181 520 -161 376 -390 754 -623 1028 -207 243
-384 416 -606 595 -334 269 -745 500 -1165 656 -117 43 -374 121 -445 134 -14
3 -63 14 -110 24 -47 10 -114 24 -150 29 -36 6 -82 13 -104 17 -21 3 -46 7
-56 9 -9 2 -53 6 -96 10 -43 4 -90 9 -104 12 -28 5 -607 13 -612 8z m479 -169
c78 -4 150 -8 160 -10 10 -2 49 -7 86 -11 37 -3 76 -8 85 -10 9 -1 39 -6 65
-9 27 -4 95 -16 150 -27 504 -100 981 -295 1412 -577 92 -60 303 -216 350
-259 12 -10 50 -43 85 -73 100 -84 296 -283 401 -405 357 -417 613 -880 779
-1410 20 -66 36 -122 34 -124 -3 -3 -901 -5 -955 -2 -9 1 -20 13 -24 28 -3 15
-15 45 -26 67 -10 22 -19 44 -19 48 0 15 -144 299 -188 369 -265 433 -599 773
-1005 1025 -128 79 -127 79 -267 149 -242 121 -593 234 -835 270 -22 3 -53 7
-70 10 -78 12 -107 15 -200 22 -286 21 -606 1 -850 -53 -38 -9 -81 -18 -95
-20 -43 -8 -202 -54 -285 -84 -486 -171 -900 -442 -1245 -816 -61 -66 -137
-156 -159 -188 -8 -12 -18 -23 -21 -26 -15 -12 -134 -187 -189 -279 -73 -120
-165 -303 -211 -421 -19 -47 -37 -89 -41 -95 -7 -10 -954 -13 -964 -3 -3 3 10
54 28 114 114 371 278 716 500 1049 52 78 162 230 177 245 3 3 25 30 50 60 25
30 56 68 70 85 13 16 106 111 205 210 275 276 526 467 855 652 447 252 986
426 1475 478 33 4 70 8 83 10 12 2 82 7 155 10 72 4 133 8 134 8 3 4 173 -1
310 -7z m-3057 -5056 c0 -5 14 -39 30 -75 16 -36 30 -68 30 -71 0 -3 27 -59
60 -124 328 -655 899 -1182 1574 -1454 87 -35 346 -122 389 -130 12 -2 45 -10
72 -16 52 -12 58 -13 115 -24 19 -3 46 -8 60 -11 14 -3 45 -8 70 -11 25 -3 56
-7 70 -9 144 -26 569 -25 740 0 14 2 45 7 70 10 25 4 90 15 145 26 55 11 111
22 125 25 14 3 85 23 158 45 491 146 911 398 1278 764 294 293 504 606 664
988 l33 77 483 0 c407 0 484 -2 484 -14 0 -25 -80 -257 -136 -396 -98 -241
-233 -495 -374 -705 -55 -83 -179 -251 -216 -295 -12 -14 -56 -65 -98 -115
-104 -121 -309 -322 -448 -438 -563 -470 -1281 -788 -1988 -882 -223 -29 -332
-36 -550 -36 -235 1 -428 13 -551 36 -9 2 -40 6 -68 10 -42 5 -263 49 -351 69
-44 11 -244 71 -328 100 -477 162 -1006 474 -1358 801 -463 430 -775 871
-1008 1424 -44 104 -156 418 -156 437 0 2 221 4 490 4 312 0 490 -4 490 -10z"/>
<path d="M3994 7931 c-5 -3 -10 -16 -10 -28 -1 -21 3 -23 45 -24 25 0 66 0 90
1 24 1 47 -3 50 -9 4 -6 6 -42 5 -80 -3 -67 -6 -292 -5 -319 1 -19 76 -12 77
8 1 8 2 101 3 206 l1 190 98 0 c94 -1 97 0 98 22 1 12 1 22 0 23 0 1 -93 3
-206 5 -113 2 -212 6 -221 8 -9 2 -21 1 -25 -3z"/>
<path d="M3322 7829 c-18 -3 -35 -8 -37 -10 -2 -2 5 -44 16 -94 10 -49 22
-103 25 -120 24 -131 52 -240 61 -238 6 1 25 5 42 8 17 3 64 12 104 21 39 8
83 18 97 20 55 10 61 15 54 37 -3 12 -7 23 -8 24 -1 1 -19 -2 -41 -7 -22 -5
-56 -12 -75 -15 -19 -3 -52 -10 -74 -16 -44 -12 -43 -12 -50 26 -3 17 -15 73
-26 125 -19 86 -33 151 -46 220 -6 30 -2 28 -42 19z"/>
<path d="M4879 7633 l-156 -198 35 -13 c20 -6 36 -11 36 -10 1 2 19 26 41 53
21 28 40 52 42 54 5 7 162 -31 211 -50 12 -5 21 -12 20 -16 -1 -5 2 -32 6 -61
8 -56 24 -72 71 -72 20 0 25 4 21 18 -6 20 -14 55 -21 97 -16 86 -25 132 -29
155 -22 102 -34 168 -35 190 -2 26 -15 38 -51 45 l-35 6 -156 -198z m191 -11
c9 -48 16 -88 15 -90 -1 -2 -36 5 -76 15 -41 9 -78 16 -82 15 -16 -4 -3 17 58
94 32 42 61 71 63 65 2 -6 12 -51 22 -99z"/>
<path d="M2768 7654 c-16 -8 -28 -18 -28 -23 0 -4 29 -70 64 -147 76 -165 82
-185 66 -224 -13 -31 -88 -75 -125 -72 -67 5 -84 26 -164 207 -30 66 -59 125
-65 132 -9 10 -18 8 -42 -7 l-31 -20 31 -67 c91 -199 131 -268 164 -287 84
-48 243 8 291 102 31 61 29 68 -106 359 l-28 61 -27 -14z"/>
<path d="M5743 7581 c-47 -76 -203 -394 -197 -401 16 -14 188 -99 229 -113 51
-17 117 -12 165 13 83 42 146 156 135 243 -10 77 -53 128 -149 181 -175 96
-172 95 -183 77z m115 -100 c73 -37 131 -93 134 -129 4 -61 -4 -98 -27 -138
-30 -51 -65 -80 -111 -93 -42 -12 -61 -7 -151 35 -73 35 -78 43 -53 79 4 6 38
70 75 143 38 72 70 132 72 132 2 0 29 -13 61 -29z"/>
<path d="M1963 7209 c-75 -44 -148 -113 -173 -164 -43 -88 -21 -193 58 -273
72 -74 165 -94 252 -55 63 28 151 103 176 150 20 38 20 40 4 61 -18 21 -18 21
-51 -30 -71 -109 -180 -153 -267 -109 -69 35 -126 129 -121 200 5 68 52 118
162 175 64 32 64 33 46 54 -22 28 -24 28 -86 -9z"/>
<path d="M6945 6675 c-16 -13 -37 -30 -45 -38 -8 -7 -49 -40 -90 -73 -74 -59
-108 -86 -162 -134 l-29 -25 42 -50 c103 -125 125 -148 163 -170 84 -49 189
-37 272 31 83 67 102 161 54 259 -16 33 -42 74 -57 92 -16 17 -46 54 -68 82
-22 28 -42 51 -45 51 -3 0 -18 -11 -35 -25z m145 -205 c37 -73 1 -165 -85
-215 -79 -47 -138 -43 -200 12 -39 35 -93 110 -87 119 4 5 67 58 141 117 l133
107 40 -52 c22 -29 48 -69 58 -88z"/>
<path d="M1220 6481 l-21 -31 112 -217 c61 -120 115 -222 119 -226 4 -5 17 5
29 21 l21 30 -30 53 c-29 53 -37 84 -22 91 5 2 120 143 126 155 1 1 32 -7 69
-17 l68 -18 20 27 c10 14 19 30 20 35 0 9 -56 27 -123 41 -14 3 -89 20 -165
39 -214 53 -198 52 -223 17z m175 -85 c49 -13 90 -27 92 -32 1 -5 -11 -25 -28
-44 -17 -19 -38 -45 -46 -57 -9 -13 -19 -23 -23 -23 -4 0 -29 41 -54 90 -25
50 -43 90 -38 89 4 0 47 -10 97 -23z"/>
<path d="M7310 5837 c-113 -56 -206 -102 -208 -103 -7 -4 134 -284 143 -284 6
0 17 4 25 10 12 7 6 27 -38 117 l-53 108 57 27 c96 46 88 49 134 -42 30 -61
45 -80 56 -76 9 3 18 6 20 6 12 0 0 36 -31 99 -19 38 -35 72 -35 75 0 5 114
66 124 66 3 0 26 -45 52 -99 45 -95 48 -99 71 -88 12 5 23 13 22 16 0 3 -30
65 -67 137 l-67 131 -205 -100z"/>
<path d="M794 5794 c-36 -75 -64 -137 -62 -139 11 -11 405 -195 417 -195 5 0
11 8 14 18 2 9 8 25 12 34 5 13 -1 20 -27 31 -78 33 -148 70 -148 77 0 5 16
42 35 83 40 85 41 92 19 101 -22 9 -29 2 -54 -52 -36 -79 -54 -112 -60 -112
-3 1 -33 15 -68 33 l-62 33 45 92 c25 52 45 99 45 107 0 11 -20 25 -36 25 -3
0 -34 -61 -70 -136z"/>
<path d="M1882 1497 c-104 -130 -112 -143 -95 -154 10 -8 36 -28 57 -46 108
-88 120 -96 133 -85 7 6 13 14 13 18 0 6 -98 88 -134 112 -9 6 25 59 62 97 14
14 10 17 86 -51 17 -16 33 -28 37 -28 8 0 33 30 28 33 -29 21 -109 90 -109 95
1 4 16 25 34 46 l33 39 64 -52 c67 -53 83 -60 92 -37 4 9 -26 39 -83 85 -49
39 -93 71 -97 71 -4 -1 -59 -65 -121 -143z"/>
<path d="M6189 1492 c-26 -11 -148 -96 -149 -104 0 -7 183 -265 204 -286 10
-11 17 -9 36 6 l23 19 -41 56 c-23 31 -42 61 -42 67 0 6 10 15 23 21 18 8 38
6 86 -10 98 -32 123 -34 151 -12 29 23 26 28 -17 35 -17 3 -58 14 -92 25 -33
10 -63 16 -67 12 -4 -3 -3 8 2 24 4 17 8 47 8 67 0 67 -62 106 -125 80z m65
-80 c13 -25 13 -32 0 -57 -14 -27 -51 -65 -63 -65 -9 1 -71 88 -71 100 0 16
62 50 92 50 20 0 31 -8 42 -28z"/>
<path d="M2420 1320 c0 -5 -14 -33 -32 -62 -17 -29 -55 -96 -85 -148 l-54 -94
23 -17 c12 -10 26 -15 30 -13 4 3 21 31 39 63 l32 58 46 -24 c85 -43 167 -24
194 46 27 66 6 97 -111 165 -65 37 -82 43 -82 26z m103 -91 c20 -17 37 -39 37
-50 0 -28 -44 -69 -75 -69 -25 0 -85 25 -85 35 0 16 64 115 74 115 6 0 28 -14
49 -31z"/>
<path d="M5828 1270 c-104 -39 -155 -110 -145 -200 21 -174 194 -241 330 -129
89 73 97 177 21 276 -48 63 -126 83 -206 53z m117 -54 c32 -21 74 -98 79 -144
10 -101 -114 -173 -200 -117 -75 49 -105 176 -54 230 50 54 120 67 175 31z"/>
<path d="M2076 1164 c-16 -24 -16 -26 6 -44 29 -24 37 -24 54 -2 20 26 17 36
-15 55 -28 17 -29 16 -45 -9z"/>
<path d="M2870 998 c-17 -51 -45 -128 -62 -172 -16 -43 -28 -79 -26 -81 2 -1
13 -7 25 -14 24 -12 17 -25 88 173 33 92 26 101 90 -107 41 -130 50 -149 72
-158 14 -5 27 -8 30 -6 10 11 123 339 119 346 -3 5 -14 11 -25 14 -17 4 -25
-11 -61 -112 -48 -137 -56 -152 -63 -125 -29 106 -93 301 -101 310 -6 7 -20
15 -32 18 -19 6 -24 -3 -54 -86z"/>
<path d="M5405 1064 c-27 -8 -63 -21 -80 -29 -16 -7 -42 -17 -57 -20 -16 -4
-28 -11 -28 -16 0 -10 50 -146 75 -204 7 -16 21 -52 31 -80 10 -27 19 -52 21
-54 6 -8 159 53 198 78 58 38 87 94 82 156 -10 139 -110 210 -242 169z m117
-58 c58 -38 82 -155 43 -208 -11 -15 -40 -36 -65 -46 -90 -39 -85 -41 -115 40
-15 40 -33 87 -40 103 -37 90 -36 84 -12 97 72 39 144 44 189 14z"/>
<path d="M4978 933 c-15 -4 -25 -37 -33 -103 -1 -8 -7 -40 -13 -70 -20 -90
-42 -208 -42 -220 0 -5 6 -10 13 -10 27 0 46 26 52 70 4 25 8 46 10 48 5 6
149 42 165 42 8 0 28 -19 45 -41 26 -35 34 -40 59 -35 16 4 31 8 34 10 2 3
-41 60 -95 128 -54 68 -109 138 -121 156 -22 30 -36 35 -74 25z m80 -138 l52
-64 -38 -10 c-21 -6 -52 -13 -69 -17 l-30 -6 15 81 c9 45 16 81 17 81 1 0 25
-29 53 -65z"/>
<path d="M2586 863 c-14 -29 -14 -30 18 -41 43 -16 43 -16 54 17 9 24 7 30 -6
34 -10 3 -25 8 -34 12 -12 5 -21 -1 -32 -22z"/>
<path d="M4703 872 c-7 -4 -10 -19 -8 -32 3 -14 7 -49 11 -78 3 -29 7 -63 10
-75 9 -46 7 -103 -5 -125 -17 -33 -91 -47 -133 -26 -31 16 -44 52 -53 144 -4
36 -9 74 -11 85 -2 10 -5 33 -6 50 -2 32 -6 34 -60 26 -7 -1 -4 -39 7 -116 3
-16 7 -55 11 -85 14 -118 55 -161 153 -156 69 3 121 27 145 66 14 25 16 43 11
102 -4 39 -8 79 -10 87 -1 9 -6 44 -10 79 -7 63 -19 75 -52 54z"/>
<path d="M3719 863 c0 -4 -2 -19 -4 -33 -1 -14 -6 -52 -9 -85 -3 -33 -8 -76
-10 -95 -19 -154 -19 -150 6 -151 13 0 32 -2 43 -4 11 -3 45 -7 75 -10 30 -3
67 -8 81 -11 29 -6 47 18 26 34 -11 9 -97 21 -156 22 -22 0 -23 2 -17 53 3 28
6 58 6 66 0 11 15 12 75 7 71 -6 75 -5 75 14 0 11 -4 21 -10 21 -5 1 -19 3
-30 4 -11 1 -38 3 -60 4 -39 1 -40 2 -40 39 0 20 3 47 6 60 6 21 11 23 58 17
28 -3 66 -8 83 -11 25 -5 34 -2 39 10 10 27 5 29 -101 40 -33 4 -77 9 -97 12
-21 3 -38 1 -39 -3z"/>
<path d="M4175 843 c-103 -19 -158 -86 -159 -192 0 -138 99 -210 257 -189 75
10 97 22 90 48 -4 15 -10 19 -22 14 -9 -4 -36 -11 -61 -17 -123 -27 -211 49
-196 171 14 115 105 152 259 106 13 -4 17 0 17 20 0 19 -6 26 -31 31 -36 8
-126 13 -154 8z"/>
</g>
</svg>
